<?xml version="1.0" encoding="UTF-8"?>
<svg id="Calque_2" data-name="Calque 2" xmlns="http://www.w3.org/2000/svg" viewBox="0 0 572.26 372.88">
  <defs>
    <style>
      .cls-1, .cls-2 {
        stroke-width: 0px;
      }

      .cls-2, .cls-3 {
        fill: #fff;
      }

      .cls-4 {
        stroke: #fff;
      }

      .cls-4, .cls-3 {
        stroke-miterlimit: 10;
      }

      .cls-3 {
        stroke: #000;
      }
    </style>
  </defs>
  <g id="Calque_1-2" data-name="Calque 1">
    <path class="cls-4" d="M481.51,372.38H89.91c-8.51,0-16.07-5.42-18.8-13.48L1.56,153.59c-4.36-12.87,5.21-26.21,18.8-26.21h531.54c13.62,0,23.19,13.4,18.77,26.28l-70.39,205.31c-2.75,8.02-10.29,13.41-18.77,13.41Z"/>
    <path class="cls-3" d="M461.64,343.38H111.39c-6.24,0-11.8-3.93-13.88-9.81l-55.47-156.71c-3.39-9.58,3.72-19.64,13.88-19.64h460.31c10.13,0,17.24,10,13.9,19.57l-54.58,156.71c-2.06,5.92-7.64,9.88-13.9,9.88Z"/>
    <path class="cls-1" d="M391.87,124.29c10.59,0,18.62-9.5,16.93-19.96C399.25,45.18,347.95,0,286.1,0s-113.15,45.18-122.69,104.33c-1.69,10.46,6.34,19.96,16.93,19.96h211.53Z"/>
    <path class="cls-2" d="M348.88,124.88c12.13,0,21-12.62,17.64-25.29-10.08-37.96-42.27-65.71-80.42-65.71s-70.35,27.76-80.42,65.71c-3.36,12.67,5.51,25.29,17.64,25.29h125.57Z"/>
  </g>
</svg>