<?xml version="1.0" encoding="UTF-8"?>
<svg id="Calque_2" data-name="Calque 2" xmlns="http://www.w3.org/2000/svg" viewBox="0 0 339.61 360.5">
  <defs>
    <style>
      .cls-1 {
        stroke-width: 0px;
      }

      .cls-2 {
        stroke-width: 13px;
      }

      .cls-2, .cls-3 {
        stroke: #fff;
        stroke-miterlimit: 10;
      }

      .cls-3 {
        stroke-width: 10px;
      }
    </style>
  </defs>
  <g id="Calque_1-2" data-name="Calque 1">
    <path class="cls-3" d="M76.39,147h106.39c18.49,0,33.5,15.01,33.5,33.5h0c0,18.49-15.01,33.5-33.5,33.5h-106.39c-6.68,0-12.11-5.43-12.11-12.11v-42.78c0-6.68,5.43-12.11,12.11-12.11Z"/>
    <path class="cls-2" d="M152.48,189.01h177.65v67h-110.65c-36.98,0-67-30.02-67-67h0Z" transform="translate(-86.75 211.62) rotate(-40.78)"/>
    <path class="cls-2" d="M220.8,108.68h89.98c14.15,0,25.64,11.49,25.64,25.64v41.36h-182.63c0-36.98,30.02-67,67-67Z" transform="translate(192.69 -136.29) rotate(49.22)"/>
    <path class="cls-1" d="M31.66,0h165.95C223.92,0,245.28,21.36,245.28,47.67v5.58H0v-21.59C0,14.19,14.19,0,31.66,0Z"/>
    <path class="cls-1" d="M0,306.72h245.28v5.64c0,26.57-21.57,48.14-48.14,48.14H33.21C14.88,360.5,0,345.62,0,327.29v-20.57H0Z"/>
    <rect class="cls-1" x="-120.92" y="156.28" width="289.77" height="47.94" transform="translate(204.22 156.28) rotate(90)"/>
  </g>
</svg>